# xmcd CD database file
#
# Track frame offsets:
#	150
#	12618
#	24892
#	37997
#	49922
#	63537
#	74028
#	87011
#	100100
#	110362
#	123734
#	134606
#
# Disc length: 1933 seconds
#
# Revision: 0
# Processed by: cddbd v1.5.2PL0 Copyright (c) Steve Scherf et al.
# Submitted via: CDex 1.51
#
DISCID=a8078b0c
DTITLE=The Surfers - Hit Movie Songs From The Exotic Islands
DYEAR=1963
DGENRE=Lounge - Exotic
TTITLE0=Follow Me (Love Song from "Mutiny On The Bounty") [from the MGM film MUTINY ON THE BOUNTY]
TTITLE1=Canoe Song (O Hine Mutu) [from the film DONOVAN'S REEF]
TTITLE2=Sweet Leilani [from the film WAIKIKI WEDDING]
TTITLE3=Island Angel (Nohea) [from the film FROM HERE TO ETERNITY]
TTITLE4=Pagan Love Song [from the film THE PAGAN]
TTITLE5=Vahine Paumotu [from the film CINERAMA IN THE SOUTH SEAS]
TTITLE6=E Tupiti [from the film DEVIL AT FOUR O'CLOCK]
TTITLE7=Bali Ha'i [from the film SOUTH PACIFIC]
TTITLE8=Pearly Shells (Pupu O Ewa) [from the film DONOVAN'S REEF]
TTITLE9=Diamond Head Theme [from the film DIAMOND HEAD]
TTITLE10=The fishing Chant (Te Manu Pukarua) [from the MGM film MUTINY ON THE BOUNTY]
TTITLE11=Farewell (Maruru A Vanu) [from the film MR. ROBERTS]
EXTD=YEAR: 1963
EXTT0=
EXTT1=
EXTT2=
EXTT3=
EXTT4=
EXTT5=
EXTT6=
EXTT7=
EXTT8=
EXTT9=
EXTT10=
EXTT11=
PLAYORDER=
